<svg xmlns="http://www.w3.org/2000/svg" width="2530.667" height="284" viewBox="0 0 1898 213" xmlns:v="https://vecta.io/nano"><path d="M46.94 0h118.13c5.44 1.42 11.04 2.42 16.2 4.75 15.09 6.57 26.67 20.62 30.12 36.72 1.54 6.73 1.15 13.68 1.18 20.53l-.01 99.05c.02 14.68-6.62 29.17-17.66 38.83-7.66 7.09-17.62 10.86-27.66 13.12H46.69c-14.08-1.98-27.47-9.18-36.04-20.65-5.87-7.51-9.13-16.69-10.65-26.02V45.8c1.77-7.23 3.83-14.54 7.94-20.85C13.83 15.58 22.71 8.1 33.01 4.03 37.51 2.24 42.3 1.36 46.94 0m18.84 38.96c-7.93 1.56-13.51 10.08-11.73 17.98l15.07 69.42c4.25.86 7-2.99 9.57-5.69 7.47-8.79 7.21-21.03 11.8-31.16 3.47-7.99 7.46-16.37 6.27-25.33-.09-2.46-1.46-5.18.02-7.44 1.35-.94 3.17-1.02 4.58-.17 4.79 2.61 7.57 8.04 7.58 13.42.32 7.33-3.04 14.25-2.7 21.57 5.35.95 10.9 1.27 16.24.02 3.58-.88 7.61.07 10.25 2.7 1.79 1.71 1.71 4.38 2.3 6.62.47 3.08 2.85 5.37 3.81 8.27.16 2.67-1.08 5.39-.16 8.02.73 2.53 1.99 5.33.31 7.79-2.33 3.62-.19 9.04-4.4 11.6-7.93 5.47-17.96 6.08-26.91 9.06-6.01 1.28-10.03 6.23-14.15 10.36l1.38 5.69-15.66 11.68c1.9 7.69 9.8 13.51 17.78 11.86l49.41-10.72c5.63-1.12 10.39-5.55 11.85-11.1 1.27-4.44-.18-8.98-1.11-13.33L133.14 40.03c-1.53-7.96-10.03-13.58-17.97-11.81L65.78 38.96zm265.64 7.23c6.45-1.66 13.31-3.08 19.91-1.42 3.58.88 6.78 3.37 8.18 6.83 2.17 5.22 1.63 11.05.93 16.51L345.9 171.53c-8.62.4-17.27 1.07-25.89.33-2.34-.13-4.38-1.34-6.29-2.57-5.74 1.9-11.62 3.67-17.7 3.91-10.27.27-21.05.78-30.6-3.67-4.75-2.12-9.41-5.33-11.59-10.22-1.38-2.85-1.17-6.1-.76-9.14l7.63-56.22c.85-7.47 7.36-12.49 13.56-15.75 11.58-6.06 25.03-6.07 37.75-5.32 5.35.38 10.4 2.33 15.36 4.23l4.05-30.92m-29.1 44.19c-4.24.65-9.56 2.89-9.86 7.84l-7.14 48.36c-.12 1.82-.84 4 .6 5.5 2.72 3.09 7.15 3.52 11.01 3.56 5.97-.11 12.66.82 17.81-2.9 2.53-1.69 2.67-4.97 3.13-7.67l6.68-47.12c.76-4.15-3.57-6.76-7.08-7.4-5-.77-10.13-.65-15.15-.17zm404.2-44.19c6.03-2.39 13-3.5 19.17-.93 5.62 2.18 9.38 7.8 10.16 13.67.79 6.1-.7 12.16-1.18 18.22 6.17-2.45 12.65-4.34 19.34-4.46 9.15-.16 18.68-.6 27.35 2.92 5.56 2.13 11.03 5.79 13.47 11.43 1.44 3.27.84 6.92.39 10.33l-10.45 74.29-31.83-.03c3.13-24.27 7.05-48.44 10.47-72.67.25-1.79.31-3.84-1.06-5.23-3.05-3.45-8.03-3.66-12.3-3.69-5.57-.02-11.83-.2-16.32 3.65-1.6 1.22-1.86 3.34-2.21 5.18l-10.6 72.79-31.78-.02 17.38-125.45zM1332 46.1c5.01-2.03 10.53-3.45 15.94-2.21 5.97 1.07 10.82 5.9 12.47 11.66 2.23 6.91.29 14.13-.62 21.08-1.24 9.2-2.85 18.36-3.85 27.59 10.45-9.27 20.33-19.17 30.56-28.68 1.35-1.58 3.57-1.16 5.43-1.27l25.44.15c-10.8 10.91-22.42 20.98-33.46 31.64l24.21 59.81c.73 1.88 1.4 3.79 2.02 5.71-7.19 2.61-15.22 4.47-22.69 1.93-8.26-2.7-13.74-10.26-17.02-17.94-3.69-8.88-7-17.92-10.61-26.83-2.89 2.76-6.47 5.06-8.57 8.5-1.97 11.38-3.19 22.9-4.86 34.34-10.67.12-21.33-.01-31.98.07L1332 46.1zm106.52.08c6.03-2.38 12.99-3.49 19.16-.92 5.63 2.18 9.39 7.8 10.17 13.67.8 6.1-.7 12.15-1.17 18.2 11.41-5.09 24.16-5.08 36.38-4.09 8.19 1.1 16.87 4.1 22.04 10.93 2.61 3.31 3.07 7.71 2.35 11.75l-10.68 75.94-31.83-.03c3.12-24.28 7.08-48.46 10.49-72.71.23-1.78.28-3.81-1.08-5.18-3.05-3.46-8.03-3.67-12.3-3.7-5.57-.02-11.84-.2-16.32 3.65-1.61 1.23-1.87 3.34-2.21 5.18l-10.6 72.79-31.77-.02 17.37-125.46zM642.87 57.84c6.72-9.84 19.53-14.82 31.18-12.53-.73 9.71-2.92 19.25-4.13 28.91 3.96.11 7.92.1 11.88.1l-2.53 17.27-11.92.26-7.45 55.17c-.79 3.47 2.78 5.65 5.63 6.41 4.94 1.12 10.06.45 15.08.58-.55 5.34-1.55 10.62-2.17 15.95-5.97 1.86-12.28 1.45-18.43 1.48-8.4-.03-17.15-1.48-24.26-6.21-4.15-2.78-7.7-7.09-8.24-12.2-.24-4.05.78-8.02 1.31-12l7.31-49.27-11.85-.09c.92-5.78 1.66-11.6 2.75-17.36h11.19c1.32-5.53 1.32-11.63 4.65-16.47zM374.28 46.18l32.01-.03c-.82 6.21-1.5 12.46-2.68 18.61-1.22 1.14-3.09.49-4.58.71-8.98-.12-17.96.1-26.94-.14l2.19-19.15zm655.32.11c10.73-.34 21.47-.15 32.21-.1l-2.8 19.13c-10.48.22-20.96.13-31.43.05.54-6.37 1.51-12.7 2.02-19.08zm149.65-.15l31.98.01c-.81 6.46-1.66 12.92-2.85 19.33-10.45-.17-20.9.14-31.34-.17l2.21-19.17zM371.33 74.29c4.75-1.36 9.76-1.81 14.69-1.56 4.4.26 9.17 1.76 11.72 5.6 2.89 4.1 2.5 9.4 1.95 14.12l-10.94 79.18c-10.59.01-21.18-.01-31.77.01l13.13-93.55c.36-1.25.1-2.9 1.22-3.8zm54.01 3.1c10.15-4.89 21.63-5 32.66-4.76 10.65.3 21.65-1.15 31.94 2.34 5.73 1.91 11.6 5.07 14.49 10.63 1.52 2.72 1.41 5.94 1 8.93l-3.91 29.15c-21.13.09-42.26-.14-63.39.12-.92 7.74-2.36 15.41-3.11 23.17-.55 4.75 5.09 6.75 8.93 6.97 7.14.08 15.33 1.3 21.27-3.64 2.11-1.47 1.49-4.49 2.9-6.38a82.33 82.33 0 0 1 20.93-5.93c3.51-.21 8.17-.81 10.46 2.53 1.36 2.86.08 6.16-1.06 8.89-4.27 10-13.83 16.81-23.98 19.97-8.54 2.78-17.64 1.92-26.47 2.05-10.47-.13-21.38.94-31.31-3.13-5.56-2.22-11.07-5.92-13.36-11.68-1.44-3.41-.72-7.16-.26-10.69l7.15-51.86c.9-8.15 8.21-13.51 15.12-16.68m20.34 15.3c-4.66 2.75-3.69 8.99-4.8 13.53l31.9-.06c.47-3.35 1.42-6.68 1.35-10.08-1.25-4.18-6.16-5.71-10.09-5.91-6.14-.11-12.89-.87-18.36 2.52zm74.56-18.38c8.5-.72 17.1-2.64 25.62-1.17 2.59.33 4.6 2.08 6.38 3.86 5.7-2.16 11.61-4.01 17.75-4.25 10.97-.37 22.65-.77 32.6 4.68 5.99 3.05 11.45 9.2 10.31 16.38l-10.65 77.64c-6.14 1.96-12.82 3.22-19.16 1.48-4.01-1.02-7.66-3.75-9.28-7.62-1.67-3.52-1.52-7.53-1-11.29l8-55.99c.58-2.67-1.38-5.05-3.61-6.22-3.72-2.02-8.12-1.7-12.21-1.78-4.89 0-10.34.33-14.14 3.81-1.55 1.26-1.79 3.35-2.09 5.19l-9.79 72.3c-10.82.21-21.65.1-32.47.06l13.74-97.08zm313.16-.67c10.43-1.81 21.07-.71 31.6-1.02 10-.31 20.66.46 29.24 6.15 5.09 3.18 9.15 8.98 8.04 15.24l-8.12 57.95c-.79 7.17-6.83 12.23-12.76 15.48-9.56 5.27-20.68 6.32-31.4 5.88-12.19-.47-24.88 1.53-36.59-2.8-5.6-2.1-11.28-5.48-13.91-11.09-1.94-3.92-.9-8.37-.37-12.49l7-51.88c.39-3.31 1.44-6.65 3.73-9.17 5.96-6.87 14.8-10.49 23.54-12.25m13.04 17.03c-3.7.89-8.06 3.07-8.31 7.38l-7.35 49.97c-.58 2.28.48 4.62 2.61 5.65 5.35 2.95 11.75 1.77 17.61 1.91 4.79-.11 11.35-1.9 12-7.54l7.19-50.09c.7-4.27-3.79-6.87-7.39-7.46-5.41-.65-10.98-.75-16.36.18zm92.33-15.95c10.14-3 20.81-1.88 31.23-2.09 10.44-.09 21.46-.58 30.99 4.42 6.16 2.99 12.1 9.19 10.81 16.58l-10.86 77.87c-8.88.94-17.86 2.36-26.78 1.22-2.28-.21-3.78-2.05-5.53-3.27-5.82 1.46-11.54 3.62-17.62 3.74-11.42.17-23.51 1.15-34.1-4-5.71-2.64-11.39-7.48-11.87-14.17.07-5.61 1.54-11.08 2.2-16.64.9-5.09.88-10.68 4.03-15.05 4.42-6.31 11.54-10.13 18.79-12.29 12.55-3.94 25.85-1.5 38.74-2.5 3.59-.51 7.48-2 9.47-5.21.98-2.56 1.61-5.5 1.02-8.22-1.73-3.87-6.43-4.84-10.25-4.98-5.62-.05-11.67-.7-16.81 2.02-2.49 1.2-3.65 3.85-5.45 5.77-10.29.35-20.6.13-30.89.07.32-3.81.59-7.9 3.08-11.02 4.82-6.34 12.29-10.06 19.8-12.25m20.31 51.21c-4.8.34-9.9-.4-14.38 1.74-2.6 1.23-5.27 3.3-5.54 6.39-.69 4.95-1.39 9.91-1.79 14.89-.46 3.64 3.49 5.56 6.48 6.18 5.63.91 11.38.46 17.07.43 4.69-.25 11.09-2.18 11.56-7.73l3.12-25.35c-5.37 1.74-10.86 3.27-16.52 3.45zm67.14-51.72c6.33-1.16 12.92-2.4 19.3-.86 3.8.92 7.37 3.4 8.82 7.14 2.02 4.92.94 10.35.29 15.43l-10.41 75.61c-10.66.22-21.33.04-31.98.1l13.98-97.42zm53.03 3.96c11.6-6.02 25.03-6.05 37.75-5.28 5.22.38 10.2 2.17 14.99 4.2 10.02-4.96 21.58-2.71 32.32-2.82l-15.27 110.85c-.55 4.4-1.13 9.18-4.3 12.58-6.99 7.87-17.74 11.09-27.89 12.18-10.6.6-21.22.22-31.82.28-7.56.07-15.16-1.17-22.01-4.43-.93-4.79-1.92-10.35 1.03-14.64 3.18-4.11 9.08-3.48 13.62-2.71 6.61 1.02 12.51 5.06 19.32 4.95 5.36-.07 11.22.67 16.04-2.24 1.97-1.07 3.53-2.92 3.84-5.19 1.06-5.63 1.76-11.31 2.77-16.95-6.35 2.21-12.9 4.17-19.67 4.3-9.17.15-18.69.6-27.39-2.81-5.57-2.11-11.25-5.49-13.78-11.13-1.59-3.25-1.07-6.95-.61-10.39l7.41-54.7c.75-7.6 7.35-12.76 13.65-16.05m26.19 12.56c-3.38.94-7.42 2.88-7.87 6.79l-7.28 49.04c-.36 2.28-.71 5.13 1.6 6.54 5.27 3.67 12.09 2.32 18.12 2.5 4.88-.12 11.65-1.78 12.31-7.59l7.19-50.06c.73-4.45-4.09-7.05-7.83-7.54-5.38-.53-10.91-.7-16.24.32zm70.4-16.53c6.73-1.24 13.83-2.57 20.53-.46 3.98 1.21 7.16 4.58 8.16 8.62 1.08 4.48.24 9.11-.36 13.59l-10.49 75.69-31.73-.01 9.4-67.09c1.55-10.1 2.65-20.28 4.49-30.34zm46.1 11.77c7.47-8.55 19.06-12.24 30.07-13.16 9.65-.41 19.32-.07 28.98-.19 9.6-.1 19.92 1.58 27.49 7.94 3.92 3.19 6.41 8.26 5.47 13.37l-10.61 77.47c-8.71 1.14-17.54 2.29-26.32 1.42-2.56-.05-4.32-1.97-6.22-3.37-3.04.57-5.91 1.82-8.93 2.47-7.47 1.89-15.23 1.34-22.85 1.39-8.54-.06-17.38-1.83-24.48-6.79-4.3-3.02-7.89-7.97-7.25-13.46.93-7.57 2.23-15.1 3.36-22.65 1.45-9.03 9.77-14.9 17.73-18.04 13.2-5.47 27.7-2.99 41.56-3.73 3.91-.35 8.28-1.76 10.48-5.24.99-2.49 1.58-5.29 1.19-7.96-1.61-4.14-6.58-5.22-10.54-5.32-5.62-.05-11.7-.68-16.82 2.14-2.27 1.07-3.35 3.45-4.79 5.34-1.72.72-3.65.4-5.44.51-8.65-.15-17.31.16-25.95-.21.31-4.2.88-8.69 3.87-11.93m39.13 39.97c-4.79.32-9.9-.4-14.34 1.81-2.61 1.23-5.16 3.38-5.4 6.45-.69 4.94-1.38 9.89-1.74 14.86-.43 3.84 3.93 5.6 7.03 6.19 5.72.7 11.54.41 17.31.25 4.46-.36 10.35-2.44 10.74-7.66l3.27-25.56c-5.41 2.02-11.08 3.46-16.87 3.66zm304.33-52.3c7.77-1.5 15.73-.9 23.6-1.01 10.46.16 21.38-1.03 31.3 3.08 6.3 2.49 12.86 7.12 14 14.27.38 4.64-.85 9.21-1.37 13.8l-6.61 47.23c-.4 3.18-1.4 6.36-3.48 8.84-5.06 6.21-12.64 9.73-20.22 11.77-8.68 2.4-17.74 1.55-26.62 1.69-9.72-.18-19.74.89-29.13-2.28-5.92-1.98-11.97-5.24-15.04-10.93-1.51-2.66-1.7-5.81-1.28-8.78l7.45-55.39c.4-3.6 1.35-7.3 3.86-10.04 5.95-6.87 14.8-10.49 23.54-12.25m13.03 17.03c-3.69.89-8.06 3.07-8.29 7.38l-6.89 46.47c-.18 2.53-1.44 5.59.43 7.77 3.44 3.5 8.75 3.34 13.3 3.38 5.64-.03 12.35.44 16.59-4.05 2.07-3.08 1.73-7.09 2.46-10.61l6.16-43.06c.7-4.27-3.79-6.87-7.39-7.46-5.42-.65-10.99-.75-16.37.18zm226.6-16.35c8.55-.75 17.23-2.7 25.81-1.12 2.54.36 4.42 2.18 6.22 3.86 10.94-5.03 23.23-4.89 34.98-4.12 8.53.95 17.63 3.94 23.03 11.01 2.65 3.38 3.05 7.88 2.32 11.98l-10.61 75.7c-6.79 1.88-14.28 3.34-21.05.59-4.65-1.78-7.92-6.35-8.42-11.26-.46-4.44.52-8.84 1.11-13.22l6.73-46.73c.2-2.4 1.07-5.28-.81-7.26-2.78-3.19-7.32-3.64-11.27-3.69-5.69-.01-12.01-.43-16.81 3.18-2.23 1.38-2.54 4.13-2.88 6.47l-9.62 71.6c-10.89.18-21.78.27-32.65-.05l13.92-96.94zm-113.87.02l32.3.05 11.83 51.95c9.16-17.08 17.33-34.69 26.07-52l32.6-.02-31.11 62.41c-5.94 11.48-11.21 23.35-17.53 34.61-5.65 3.22-12.68 3.86-18.93 2.2-6.86-1.89-12.29-7.27-15.42-13.51-3.15-6.05-4.09-12.87-5.57-19.44l-14.24-66.25zm-54.12 78.27c10.67-.19 21.35-.15 32.03-.02-.58 6.21-1.31 12.4-2.01 18.59h-32.47c.67-6.21 1.63-12.38 2.45-18.57zM119.31 166.08c2.76-1.52 6.59.7 6.27 3.95.04 3.28-4.34 5.27-6.77 3.1-2.38-1.69-2.05-5.68.5-7.05z" fill="#212221"/><path fill="#fdd903" d="M65.78 38.96l49.39-10.74c7.94-1.77 16.44 3.85 17.97 11.81l24.04 110.05c.93 4.35 2.38 8.89 1.11 13.33-1.46 5.55-6.22 9.98-11.85 11.1l-49.41 10.72c-7.98 1.65-15.88-4.17-17.78-11.86l15.66-11.68-1.38-5.69c4.12-4.13 8.14-9.08 14.15-10.36 8.95-2.98 18.98-3.59 26.91-9.06 4.21-2.56 2.07-7.98 4.4-11.6 1.68-2.46.42-5.26-.31-7.79-.92-2.63.32-5.35.16-8.02-.96-2.9-3.34-5.19-3.81-8.27-.59-2.24-.51-4.91-2.3-6.62-2.64-2.63-6.67-3.58-10.25-2.7-5.34 1.25-10.89.93-16.24-.02-.34-7.32 3.02-14.24 2.7-21.57-.01-5.38-2.79-10.81-7.58-13.42-1.41-.85-3.23-.77-4.58.17-1.48 2.26-.11 4.98-.02 7.44 1.19 8.96-2.8 17.34-6.27 25.33-4.59 10.13-4.33 22.37-11.8 31.16-2.57 2.7-5.32 6.55-9.57 5.69L54.05 56.94c-1.78-7.9 3.8-16.42 11.73-17.98m53.53 127.12c-2.55 1.37-2.88 5.36-.5 7.05 2.43 2.17 6.81.18 6.77-3.1.32-3.25-3.51-5.47-6.27-3.95z"/></svg>