<svg width="18" height="18" viewBox="0 0 18 18" fill="none" xmlns="http://www.w3.org/2000/svg">
<g clip-path="url(#clip0_1207_1809)">
<path d="M12.5759 6.85045H11.6337C11.4288 6.85045 11.2339 6.94889 11.1134 7.11563L8.99998 10.0366L6.88659 7.11563C6.76606 6.94889 6.5732 6.85045 6.36628 6.85045H5.42409C5.29351 6.85045 5.21717 6.99911 5.29351 7.10558L8.8694 12.0475C8.93369 12.1359 9.06427 12.1359 9.12856 12.0475L12.7044 7.10558C12.7828 6.99911 12.7065 6.85045 12.5759 6.85045V6.85045Z" fill="black"/>
<path d="M9 0C4.02991 0 0 4.02991 0 9C0 13.9701 4.02991 18 9 18C13.9701 18 18 13.9701 18 9C18 4.02991 13.9701 0 9 0ZM9 16.4732C4.87366 16.4732 1.52679 13.1263 1.52679 9C1.52679 4.87366 4.87366 1.52679 9 1.52679C13.1263 1.52679 16.4732 4.87366 16.4732 9C16.4732 13.1263 13.1263 16.4732 9 16.4732Z" fill="black"/>
</g>
<defs>
<clipPath id="clip0_1207_1809">
<rect width="18" height="18" fill="white"/>
</clipPath>
</defs>
</svg>
